<?xml version="1.0" encoding="UTF-8" standalone="no"?>
<svg
   xmlns:dc="http://purl.org/dc/elements/1.1/"
   xmlns:cc="http://creativecommons.org/ns#"
   xmlns:rdf="http://www.w3.org/1999/02/22-rdf-syntax-ns#"
   xmlns:svg="http://www.w3.org/2000/svg"
   xmlns="http://www.w3.org/2000/svg"
   xmlns:sodipodi="http://sodipodi.sourceforge.net/DTD/sodipodi-0.dtd"
   xmlns:inkscape="http://www.inkscape.org/namespaces/inkscape"
   inkscape:version="1.0 (4035a4fb49, 2020-05-01)"
   sodipodi:docname="logo-mini.svg"
   xml:space="preserve"
   style="enable-background:new 0 0 15.9 16.1;"
   viewBox="0 0 15.9 16.1"
   y="0px"
   x="0px"
   id="Layer_1"
   version="1.1"><metadata
   id="metadata20"><rdf:RDF><cc:Work
       rdf:about=""><dc:format>image/svg+xml</dc:format><dc:type
         rdf:resource="http://purl.org/dc/dcmitype/StillImage" /></cc:Work></rdf:RDF></metadata><defs
   id="defs18" /><sodipodi:namedview
   inkscape:current-layer="Layer_1"
   inkscape:window-maximized="1"
   inkscape:window-y="26"
   inkscape:window-x="0"
   inkscape:cy="8.582625"
   inkscape:cx="5.9740904"
   inkscape:zoom="45.254834"
   showgrid="false"
   id="namedview16"
   inkscape:window-height="960"
   inkscape:window-width="1920"
   inkscape:pageshadow="2"
   inkscape:pageopacity="0"
   guidetolerance="10"
   gridtolerance="10"
   objecttolerance="10"
   borderopacity="1"
   bordercolor="#666666"
   pagecolor="#ffffff" />
<style
   id="style2"
   type="text/css">
	.st0{fill:url(#SVGID_1_);}
</style>

<path
   sodipodi:nodetypes="ccccccscsccscsccsccccccc"
   id="path873"
   d="M 2.1628518,15.228141 H 13.099074 c 0.0976,-0.025 0.193641,-0.05429 0.222682,-0.267156 C 12.629895,13.519192 11.661742,12.591919 9.7958255,13.336476 9.1966366,12.890465 8.5954385,12.450553 7.8288398,12.512688 V 11.479716 C 9.4493145,11.374723 10.371986,11.148486 10.971013,10.173679 11.643554,9.079242 11.552846,7.6144341 11.391205,7.4594468 11.128183,7.4767275 10.968028,7.7404551 10.63,7.6835132 9.4495028,7.4846546 8.3598238,8.0266405 7.8980759,9.0942599 V 6.8524432 C 8.3793499,6.343026 9.0847178,6.0593683 9.5161285,5.6653502 10.661677,4.6190919 10.220422,1.2180811 9.1625364,0.93253447 8.8793116,1.5237532 8.1850393,1.649408 7.8015068,1.9813127 6.41489,3.1812756 6.0713956,4.649334 7.2722992,6.8849311 V 8.1448745 C 7.0741481,7.3291508 6.4328491,6.7708449 5.72883,6.4713465 5.1543457,6.2269538 3.9785707,5.9099847 3.3176636,6.4153471 3.4649297,6.7483793 3.6550181,7.0522761 3.625596,7.5312086 3.7989154,9.4071562 5.0620708,10.209248 7.2690447,10.08136 v 2.434304 C 6.5844349,12.49172 6.0048108,12.810772 5.4898692,13.341146 4.3233706,12.892224 2.8952463,12.787431 1.9644186,14.806439 c 0.033342,0.208254 0.042745,0.39537 0.1984332,0.421702 z"
   style="opacity:0.997;fill:#008000;fill-opacity:1;stroke:#f9f9f9;stroke-width:0.1;stroke-linecap:round;stroke-linejoin:bevel;stroke-miterlimit:4;stroke-dasharray:none;stroke-opacity:1;paint-order:stroke fill markers" /><g
   style="fill:#ffffff"
   id="g902"><path
     style="opacity:0.997;fill:#ffffff;fill-opacity:1;stroke:#f9f9f9;stroke-width:0.1;stroke-linecap:round;stroke-linejoin:bevel;stroke-miterlimit:4;stroke-dasharray:none;stroke-opacity:1;paint-order:stroke fill markers"
     d="M 4.8100087,7.6010715 C 5.1616007,7.9311694 5.6894859,8.1678651 6.2431945,8.3908792 6.9037851,8.6904351 6.9453818,9.1990577 7.2238808,9.627666 6.8370019,9.3378797 6.4490402,9.0519284 6.0706311,8.7321446 4.9870503,8.2909031 5.0087416,7.9566563 4.8100087,7.6010715 Z"
     id="path875"
     sodipodi:nodetypes="ccccc" /><path
     sodipodi:nodetypes="ccccc"
     id="path877"
     d="M 8.7449175,3.009578 C 8.536759,3.5447782 8.5101998,4.2331362 8.5102415,4.9439284 8.4732978,5.8068267 7.9300348,6.0790694 7.5805511,6.5773687 7.7284858,6.02113 7.8717029,5.4654015 8.0565381,4.9051712 8.0617734,3.5120433 8.4405979,3.3872862 8.7449175,3.009578 Z"
     style="opacity:0.997;fill:#ffffff;fill-opacity:1;stroke:#f9f9f9;stroke-width:0.119074;stroke-linecap:round;stroke-linejoin:bevel;stroke-miterlimit:4;stroke-dasharray:none;stroke-opacity:1;paint-order:stroke fill markers" /><path
     style="opacity:0.997;fill:#ffffff;fill-opacity:1;stroke:#f9f9f9;stroke-width:0.0956967;stroke-linecap:round;stroke-linejoin:bevel;stroke-miterlimit:4;stroke-dasharray:none;stroke-opacity:1;paint-order:stroke fill markers"
     d="M 10.129373,9.0570875 C 9.7692201,9.3456807 9.4737861,9.8138924 9.1878324,10.308415 8.8149484,10.893878 8.3274597,10.864701 7.8838328,11.07076 8.2105517,10.7433 8.5337829,10.414298 8.8877799,10.098906 9.4519384,9.1317993 9.7656859,9.1974221 10.129373,9.0570875 Z"
     id="path879"
     sodipodi:nodetypes="ccccc" /></g></svg>
